<?xml version="1.0" encoding="UTF-8"?><svg xmlns="http://www.w3.org/2000/svg" xmlns:xlink="http://www.w3.org/1999/xlink" version="1.1" id="Layer_1" x="0px" y="0px" viewBox="0 0 16 16" xml:space="preserve"><path d="M15.975 15.342l-5-15A.502.502 0 0 0 10.5 0h-5a.499.499 0 0 0-.474.658l4.43 13.291A2.996 2.996 0 0 0 12.302 16H15.5a.499.499 0 0 0 .475-.658z" fill="#4CAF50"/><path d="M10.905.208A.496.496 0 0 0 10.5 0h-5a.5.5 0 0 0-.474.342l-5 15A.501.501 0 0 0 .5 16h3.198a2.996 2.996 0 0 0 2.846-2.051L10.975.658a.499.499 0 0 0-.07-.45z" fill="#2196F3"/><metadata><rdf:RDF xmlns:rdf="http://www.w3.org/1999/02/22-rdf-syntax-ns#" xmlns:rdfs="http://www.w3.org/2000/01/rdf-schema#" xmlns:dc="http://purl.org/dc/elements/1.1/"><rdf:Description about="https://iconscout.com/legal#licenses" dc:title="google,adwords,logo,color,e" dc:description="google,adwords,logo,color,e" dc:publisher="Iconscout" dc:date="2018-02-17" dc:format="image/svg+xml" dc:language="en"><dc:creator><rdf:Bag><rdf:li>Pixel Icons</rdf:li></rdf:Bag></dc:creator></rdf:Description></rdf:RDF></metadata></svg>